#N canvas 487 56 1433 797 12;
#X obj 969 508 cnv 19 180 240 empty empty Mic-to-pitch 20 12 0 20 #e0e0e0 #404040 0;
#X obj 989 532 adc~;
#X floatatom 989 655 5 0 0 0 - - - 0;
#X obj 989 698 bng 19 250 50 0 empty empty empty 0 -10 0 12 #fcfcfc #000000 #000000;
#X obj 989 597 sigmund~ notes, f 9;
#X obj 989 633 int;
#X obj 989 720 s note;
#X obj 989 676 sel 45 47 49, f 13;
#X obj 22 100 cnv 19 160 278 empty empty To\ speaker 20 12 0 20 #e0e0e0 #404040 0;
#X obj 583 100 cnv 19 370 320 empty empty Random\ sinewaves 20 12 0 20 #e0e0e0 #404040 0;
#X obj 989 553 *~, f 4;
#X obj 1081 534 vu 10 80 empty empty -1 -10 0 12 #9f9f9f #000000 1 0;
#X obj 1024 554 env~;
#X obj 1024 575 - 90;
#X msg 1024 532 0, f 2;
#X msg 1049 532 1, f 2;
#X obj 604 124 tgl 40 0 empty empty empty 0 -10 0 12 #fcfcfc #000000 #000000 0 1;
#X obj 751 145 *~, f 6;
#X floatatom 850 146 5 0 0 2 Rhythm - - 12;
#X floatatom 897 146 5 0 0 2 Pitch - - 12;
#X floatatom 802 146 5 0 0 2 Length - - 12;
#X obj 21 18 cnv 19 1140 58 empty empty erik\ stifjell\ -\ søvnen\ (2023) 10 30 1 48 #e0e0e0 #404040 0;
#X obj 647 124 r RS1;
#X obj 694 124 unpack 1 0 0 0;
#X obj 190 100 cnv 19 385 120 empty empty Keypress\ \ \ \ \ \ \ \ \ \ \ MIDI\ Start 20 12 0 20 #e0e0e0 #404040 0;
#X obj 211 124 key, f 12;
#X obj 647 145 r S1, f 5;
#X obj 209 194 s keypress;
#X text 966 219 4: =Start, f 10;
#X text 966 97 Start: Long sines(1) g# 35";
#X text 966 157 2: Long sines(1) c# 37";
#X text 966 181 3: Long sines(3) a#-b-a# +d +a# 12", f 27;
#X text 966 321 6: Long sines(4) c# \, d# +e +g# 20", f 27;
#X text 966 357 7: Long sines c c-b+d# +c# -c# -b 16", f 27;
#X text 966 393 8: Long sines(1) d# 29";
#X text 966 241 5: Long sines(2) g# +f# g#-c -f# c-c# +f#-e c#-e e-d# d#-c# e-c# -c# 72", f 27;
#X text 966 283 5b: Random Sines(6) 30" d# \, e +c \, c# +d \, f 30", f 27;
#X text 966 417 9: Random sinwaves(6) b +d# +c \, e \, -b +d \, f -d \, f +g \, a \, a# \, b \, -c \, e.. 75", f 27;
#X text 966 469 10: Long sines(6) g# +c +c# +d# +e +f# -f#.., f 27;
#X obj 604 167 tgl 40 0 empty empty empty 0 -10 0 12 #fcfcfc #000000 #000000 0 1;
#X obj 751 188 *~, f 6;
#X floatatom 850 189 5 0 0 2 Rhythm - - 12;
#X floatatom 897 189 5 0 0 2 Pitch - - 12;
#X floatatom 802 189 5 0 0 2 Length - - 12;
#X obj 695 167 unpack 1 0 0 0;
#X obj 604 210 tgl 40 0 empty empty empty 0 -10 0 12 #fcfcfc #000000 #000000 0 1;
#X obj 751 231 *~, f 6;
#X floatatom 850 232 5 0 0 2 Rhythm - - 12;
#X floatatom 897 232 5 0 0 2 Pitch - - 12;
#X floatatom 802 232 5 0 0 2 Length - - 12;
#X obj 695 210 unpack 1 0 0 0;
#X obj 604 253 tgl 40 0 empty empty empty 0 -10 0 12 #fcfcfc #000000 #000000 0 1;
#X obj 751 274 *~, f 6;
#X floatatom 850 275 5 0 0 2 Rhythm - - 12;
#X floatatom 897 275 5 0 0 2 Pitch - - 12;
#X floatatom 802 275 5 0 0 2 Length - - 12;
#X obj 695 253 unpack 1 0 0 0;
#X obj 604 296 tgl 40 0 empty empty empty 0 -10 0 12 #fcfcfc #000000 #000000 0 1;
#X obj 751 317 *~, f 6;
#X floatatom 850 318 5 0 0 2 Rhythm - - 12;
#X floatatom 897 318 5 0 0 2 Pitch - - 12;
#X floatatom 802 318 5 0 0 2 Length - - 12;
#X obj 695 296 unpack 1 0 0 0;
#X obj 604 339 tgl 40 0 empty empty empty 0 -10 0 12 #fcfcfc #000000 #000000 0 1;
#X obj 751 361 *~, f 6;
#X floatatom 850 361 5 0 0 2 Rhythm - - 12;
#X floatatom 897 361 5 0 0 2 Pitch - - 12;
#X floatatom 802 361 5 0 0 2 Length - - 12;
#X obj 695 339 unpack 1 0 0 0;
#X obj 647 167 r RS2;
#X obj 647 188 r S2, f 5;
#X obj 647 231 r S3, f 5;
#X obj 647 210 r RS3;
#X obj 647 253 r RS4;
#X obj 647 274 r S4, f 5;
#X obj 647 296 r RS5;
#X obj 647 317 r S5, f 5;
#X obj 647 339 r RS6;
#X obj 647 360 r S6, f 5;
#X obj 583 428 cnv 19 370 320 empty empty Long\ sinewaves 20 12 0 20 #e0e0e0 #404040 0;
#X obj 750 472 *~, f 6;
#X obj 604 452 bng 40 250 50 0 empty empty empty 0 -10 0 12 #fcfcfc #000000 #000000;
#X floatatom 849 474 5 0 0 2 Length - - 12;
#X floatatom 896 474 5 0 0 2 Pitch - - 12;
#X floatatom 801 474 5 0 0 2 Vol. - - 12;
#X obj 694 450 unpack 1 0 0 0;
#X obj 750 516 *~, f 6;
#X obj 604 495 bng 40 250 50 0 empty empty empty 0 -10 0 12 #fcfcfc #000000 #000000;
#X floatatom 849 517 5 0 0 2 Length - - 12;
#X floatatom 896 517 5 0 0 2 Pitch - - 12;
#X floatatom 801 517 5 0 0 2 Vol. - - 12;
#X obj 694 494 unpack 1 0 0 0;
#X obj 750 559 *~, f 6;
#X obj 604 538 bng 40 250 50 0 empty empty empty 0 -10 0 12 #fcfcfc #000000 #000000;
#X floatatom 849 560 5 0 0 2 Length - - 12;
#X floatatom 896 560 5 0 0 2 Pitch - - 12;
#X floatatom 801 560 5 0 0 2 Vol. - - 12;
#X obj 694 538 unpack 1 0 0 0;
#X obj 750 602 *~, f 6;
#X obj 604 581 bng 40 250 50 0 empty empty empty 0 -10 0 12 #fcfcfc #000000 #000000;
#X floatatom 849 603 5 0 0 2 Length - - 12;
#X floatatom 896 603 5 0 0 2 Pitch - - 12;
#X floatatom 801 603 5 0 0 2 Vol. - - 12;
#X obj 694 581 unpack 1 0 0 0;
#X obj 750 645 *~, f 6;
#X obj 604 624 bng 40 250 50 0 empty empty empty 0 -10 0 12 #fcfcfc #000000 #000000;
#X floatatom 849 646 5 0 0 2 Length - - 12;
#X floatatom 896 646 5 0 0 2 Pitch - - 12;
#X floatatom 801 646 5 0 0 2 Vol. - - 12;
#X obj 694 624 unpack 1 0 0 0;
#X obj 750 688 *~, f 6;
#X obj 604 667 bng 40 250 50 0 empty empty empty 0 -10 0 12 #fcfcfc #000000 #000000;
#X floatatom 849 689 5 0 0 2 Length - - 12;
#X floatatom 896 689 5 0 0 2 Pitch - - 12;
#X floatatom 801 689 5 0 0 2 Vol. - - 12;
#X obj 694 667 unpack 1 0 0 0;
#X obj 647 452 r LS1;
#X obj 647 495 r LS2;
#X obj 647 538 r LS3;
#X obj 647 581 r LS4;
#X obj 647 624 r LS5;
#X obj 647 667 r LS6;
#X obj 190 228 cnv 19 385 150 empty empty Presets\ 1\ -\ 10 20 12 0 20 #e0e0e0 #404040 0;
#X obj 210 252 hradio 35 1 0 10 empty keypress empty 0 -10 0 12 #9f9f9f #00faff #000000 0;
#X obj 210 289 + 1;
#X floatatom 244 290 5 0 0 1 \ Presetnumber - - 0;
#X obj 210 310 sel 1 2 3 4 5 6 7 8 9 10, f 49;
#X obj 210 332 s p1, f 3;
#X obj 244 332 s p2, f 2;
#X obj 278 332 s p3, f 2;
#X obj 312 332 s p4, f 2;
#X obj 346 332 s p5, f 2;
#X obj 380 332 s p6, f 2;
#X obj 414 332 s p7, f 2;
#X obj 448 332 s p8, f 2;
#X obj 482 332 s p9, f 2;
#X obj 516 332 s p10, f 3;
#X obj 170 387 cnv 19 140 60 empty empty 1 10 35 0 50 #e0e0e0 #404040 0;
#X obj 260 398 bng 40 250 50 0 empty empty empty 0 -10 0 12 #fcfcfc #000000 #000000;
#X obj 290 194 s pS;
#X obj 215 398 r p1, f 5;
#X text 966 119 1: Random Sines(6) c \, c# \, d# +d \, e \, f 45", f 27;
#X obj 22 386 cnv 19 140 60 empty empty S 10 35 0 50 #e0e0e0 #404040 0;
#X obj 112 397 bng 40 250 50 0 empty empty empty 0 -10 0 12 #fcfcfc #000000 #000000;
#X obj 67 397 r pS, f 5;
#N canvas 133 261 530 635 RS1 0;
#X obj 332 331 mtof;
#X obj 309 259 bng 30 250 50 0 empty empty empty 0 -10 0 12 #fcfcfc #000000 #000000;
#X obj 74 192 metro 200, f 14;
#X obj 75 257 bng 30 250 50 0 empty empty empty 0 -10 0 12 #fcfcfc #000000 #000000;
#X obj 75 349 / 100;
#X floatatom 75 373 5 0 0 0 - - - 0;
#X obj 73 496 vline~;
#X obj 74 222 t b b, f 34;
#X listbox 75 440 20 0 0 0 - - - 0;
#X obj 177 350 random 200;
#X obj 86 299 s bang;
#X obj 177 322 r bang;
#X obj 169 99 r bang;
#X obj 27 87 inlet toggle;
#X obj 196 650 s~ sound;
#X obj 99 657 s~ ampl;
#X obj 206 660 s~ sound;
#X obj 109 667 s~ ampl;
#X obj 331 445 outlet~;
#X obj 73 537 outlet~;
#X obj 169 127 random 200;
#X obj 331 393 osc~;
#X obj 169 155 + 300;
#X obj 385 278 inlet pitch;
#X floatatom 346 303 5 0 0 0 - - - 0;
#X obj 235 157 inlet rhythm;
#X obj 177 376 + 200;
#X obj 226 375 inlet lengde;
#X obj 75 408 pack f f, f 15;
#X obj 331 360 * 1.00455;
#X floatatom 389 332 5 0 0 0 - - - 0;
#X floatatom 388 388 5 0 0 0 - - - 0;
#X text 402 361 Adjustment 440Hz to 442Hz;
#X text 30 18 Random sinewaves #1;
#X msg 75 467 \$1 25 \, 0 \$2 20;
#X obj 75 325 random 55, f 12;
#X connect 0 0 29 0;
#X connect 0 0 30 0;
#X connect 1 0 24 0;
#X connect 2 0 7 0;
#X connect 3 0 10 0;
#X connect 3 0 35 0;
#X connect 4 0 5 0;
#X connect 5 0 28 0;
#X connect 6 0 19 0;
#X connect 7 0 3 0;
#X connect 7 1 1 0;
#X connect 8 0 34 0;
#X connect 9 0 26 0;
#X connect 11 0 9 0;
#X connect 12 0 20 0;
#X connect 13 0 2 0;
#X connect 20 0 22 0;
#X connect 21 0 18 0;
#X connect 22 0 2 1;
#X connect 23 0 24 0;
#X connect 24 0 0 0;
#X connect 25 0 22 1;
#X connect 26 0 28 1;
#X connect 27 0 26 1;
#X connect 28 0 8 0;
#X connect 29 0 31 0;
#X connect 29 0 21 0;
#X connect 34 0 6 0;
#X connect 35 0 4 0;
#X restore 694 145 pd RS1;
#N canvas 133 261 607 635 RS2 0;
#X obj 343 327 mtof;
#X obj 320 255 bng 30 250 50 0 empty empty empty 0 -10 0 12 #fcfcfc #000000 #000000;
#X obj 85 188 metro 200, f 14;
#X obj 86 253 bng 30 250 50 0 empty empty empty 0 -10 0 12 #fcfcfc #000000 #000000;
#X obj 86 345 / 100;
#X floatatom 86 369 5 0 0 0 - - - 0;
#X obj 84 492 vline~;
#X obj 85 218 t b b, f 34;
#X listbox 86 436 20 0 0 0 - - - 0;
#X obj 188 346 random 200;
#X obj 97 295 s bang;
#X obj 188 318 r bang;
#X obj 180 95 r bang;
#X obj 38 83 inlet toggle;
#X obj 196 650 s~ sound;
#X obj 99 657 s~ ampl;
#X obj 206 660 s~ sound;
#X obj 109 667 s~ ampl;
#X obj 342 441 outlet~;
#X obj 84 533 outlet~;
#X obj 180 123 random 200;
#X obj 344 382 osc~;
#X obj 180 151 + 300;
#X obj 396 274 inlet pitch;
#X floatatom 357 299 5 0 0 0 - - - 0;
#X obj 246 153 inlet rhythm;
#X obj 188 372 + 200;
#X obj 237 371 inlet lengde;
#X msg 86 463 \$1 20 \, 0 \$2 20;
#X obj 86 404 pack f f, f 15;
#X obj 344 355 * 1.00455;
#X floatatom 402 327 5 0 0 0 - - - 0;
#X floatatom 401 383 5 0 0 0 - - - 0;
#X text 413 357 Adjustment 440Hz to 442Hz;
#X text 30 17 Random sinewaves #2;
#X obj 86 321 random 55, f 12;
#X connect 0 0 31 0;
#X connect 0 0 30 0;
#X connect 1 0 24 0;
#X connect 2 0 7 0;
#X connect 3 0 10 0;
#X connect 3 0 35 0;
#X connect 4 0 5 0;
#X connect 5 0 29 0;
#X connect 6 0 19 0;
#X connect 7 0 3 0;
#X connect 7 1 1 0;
#X connect 8 0 28 0;
#X connect 9 0 26 0;
#X connect 11 0 9 0;
#X connect 12 0 20 0;
#X connect 13 0 2 0;
#X connect 20 0 22 0;
#X connect 21 0 18 0;
#X connect 22 0 2 1;
#X connect 23 0 24 0;
#X connect 24 0 0 0;
#X connect 25 0 22 1;
#X connect 26 0 29 1;
#X connect 27 0 26 1;
#X connect 28 0 6 0;
#X connect 29 0 8 0;
#X connect 30 0 32 0;
#X connect 30 0 21 0;
#X connect 35 0 4 0;
#X restore 694 188 pd RS2;
#N canvas 89 242 683 635 RS3 1;
#X obj 340 352 mtof;
#X obj 317 280 bng 30 250 50 0 empty empty empty 0 -10 0 12 #fcfcfc #000000 #000000;
#X obj 82 213 metro 200, f 14;
#X obj 83 278 bng 30 250 50 0 empty empty empty 0 -10 0 12 #fcfcfc #000000 #000000;
#X obj 83 370 / 100;
#X floatatom 83 394 5 0 0 0 - - - 0;
#X obj 81 517 vline~;
#X obj 82 243 t b b, f 34;
#X listbox 83 461 20 0 0 0 - - - 0;
#X obj 185 371 random 200;
#X obj 94 320 s bang;
#X obj 185 343 r bang;
#X obj 177 120 r bang;
#X obj 35 108 inlet toggle;
#X obj 196 650 s~ sound;
#X obj 99 657 s~ ampl;
#X obj 206 660 s~ sound;
#X obj 109 667 s~ ampl;
#X obj 339 466 outlet~;
#X obj 81 558 outlet~;
#X obj 177 148 random 200;
#X obj 339 414 osc~;
#X obj 177 176 + 300;
#X obj 393 299 inlet pitch;
#X floatatom 354 324 5 0 0 0 - - - 0;
#X obj 243 178 inlet rhythm;
#X obj 185 397 + 200;
#X obj 234 396 inlet lengde;
#X msg 83 488 \$1 20 \, 0 \$2 20;
#X obj 83 429 pack f f, f 15;
#X obj 341 380 * 1.00455;
#X floatatom 399 352 5 0 0 0 - - - 0;
#X floatatom 398 408 5 0 0 0 - - - 0;
#X text 410 382 Adjustment 440Hz to 442Hz;
#X text 30 19 Random sinewaves #1;
#X obj 83 346 random 55, f 12;
#X connect 0 0 30 0;
#X connect 0 0 31 0;
#X connect 1 0 24 0;
#X connect 2 0 7 0;
#X connect 3 0 10 0;
#X connect 3 0 35 0;
#X connect 4 0 5 0;
#X connect 5 0 29 0;
#X connect 6 0 19 0;
#X connect 7 0 3 0;
#X connect 7 1 1 0;
#X connect 8 0 28 0;
#X connect 9 0 26 0;
#X connect 11 0 9 0;
#X connect 12 0 20 0;
#X connect 13 0 2 0;
#X connect 20 0 22 0;
#X connect 21 0 18 0;
#X connect 22 0 2 1;
#X connect 23 0 24 0;
#X connect 24 0 0 0;
#X connect 25 0 22 1;
#X connect 26 0 29 1;
#X connect 27 0 26 1;
#X connect 28 0 6 0;
#X connect 29 0 8 0;
#X connect 30 0 32 0;
#X connect 30 0 21 0;
#X connect 35 0 4 0;
#X restore 694 231 pd RS3;
#N canvas 91 207 630 635 RS4 1;
#X obj 336 353 mtof;
#X obj 313 281 bng 30 250 50 0 empty empty empty 0 -10 0 12 #fcfcfc #000000 #000000;
#X obj 78 214 metro 200, f 14;
#X obj 79 279 bng 30 250 50 0 empty empty empty 0 -10 0 12 #fcfcfc #000000 #000000;
#X obj 79 371 / 100;
#X floatatom 79 395 5 0 0 0 - - - 0;
#X obj 77 518 vline~;
#X obj 78 244 t b b, f 34;
#X listbox 79 462 20 0 0 0 - - - 0;
#X obj 181 372 random 200;
#X obj 90 321 s bang;
#X obj 181 344 r bang;
#X obj 173 121 r bang;
#X obj 31 109 inlet toggle;
#X obj 196 650 s~ sound;
#X obj 99 657 s~ ampl;
#X obj 206 660 s~ sound;
#X obj 109 667 s~ ampl;
#X obj 335 467 outlet~;
#X obj 77 559 outlet~;
#X obj 173 149 random 200;
#X obj 336 421 osc~;
#X obj 173 177 + 300;
#X obj 389 300 inlet pitch;
#X floatatom 350 325 5 0 0 0 - - - 0;
#X obj 239 179 inlet rhythm;
#X obj 181 398 + 200;
#X obj 230 397 inlet lengde;
#X msg 79 489 \$1 20 \, 0 \$2 20;
#X obj 79 430 pack f f, f 15;
#X obj 337 381 * 1.00455;
#X floatatom 395 353 5 0 0 0 - - - 0;
#X floatatom 394 409 5 0 0 0 - - - 0;
#X text 406 383 Adjustment 440Hz to 442Hz;
#X text 30 19 Random sinewaves #1;
#X obj 79 347 random 55, f 12;
#X connect 0 0 30 0;
#X connect 0 0 31 0;
#X connect 1 0 24 0;
#X connect 2 0 7 0;
#X connect 3 0 10 0;
#X connect 3 0 35 0;
#X connect 4 0 5 0;
#X connect 5 0 29 0;
#X connect 6 0 19 0;
#X connect 7 0 3 0;
#X connect 7 1 1 0;
#X connect 8 0 28 0;
#X connect 9 0 26 0;
#X connect 11 0 9 0;
#X connect 12 0 20 0;
#X connect 13 0 2 0;
#X connect 20 0 22 0;
#X connect 21 0 18 0;
#X connect 22 0 2 1;
#X connect 23 0 24 0;
#X connect 24 0 0 0;
#X connect 25 0 22 1;
#X connect 26 0 29 1;
#X connect 27 0 26 1;
#X connect 28 0 6 0;
#X connect 29 0 8 0;
#X connect 30 0 32 0;
#X connect 30 0 21 0;
#X connect 35 0 4 0;
#X restore 694 274 pd RS4;
#N canvas 91 207 629 635 RS5 1;
#X obj 342 327 mtof;
#X obj 319 255 bng 30 250 50 0 empty empty empty 0 -10 0 12 #fcfcfc #000000 #000000;
#X obj 84 188 metro 200, f 14;
#X obj 85 253 bng 30 250 50 0 empty empty empty 0 -10 0 12 #fcfcfc #000000 #000000;
#X obj 85 345 / 100;
#X floatatom 85 369 5 0 0 0 - - - 0;
#X obj 83 492 vline~;
#X obj 84 218 t b b, f 34;
#X listbox 85 436 20 0 0 0 - - - 0;
#X obj 187 346 random 200;
#X obj 96 295 s bang;
#X obj 187 318 r bang;
#X obj 179 95 r bang;
#X obj 37 83 inlet toggle;
#X obj 196 650 s~ sound;
#X obj 99 657 s~ ampl;
#X obj 206 660 s~ sound;
#X obj 109 667 s~ ampl;
#X obj 341 441 outlet~;
#X obj 83 533 outlet~;
#X obj 179 123 random 200;
#X obj 342 390 osc~;
#X obj 179 151 + 300;
#X obj 395 274 inlet pitch;
#X floatatom 356 299 5 0 0 0 - - - 0;
#X obj 245 153 inlet rhythm;
#X obj 187 372 + 200;
#X obj 236 371 inlet lengde;
#X msg 85 463 \$1 20 \, 0 \$2 20;
#X obj 85 404 pack f f, f 15;
#X obj 343 355 * 1.00455;
#X floatatom 401 327 5 0 0 0 - - - 0;
#X floatatom 400 383 5 0 0 0 - - - 0;
#X text 412 357 Adjustment 440Hz to 442Hz;
#X text 29 18 Random sinewaves #1;
#X obj 85 321 random 55, f 12;
#X connect 0 0 30 0;
#X connect 0 0 31 0;
#X connect 1 0 24 0;
#X connect 2 0 7 0;
#X connect 3 0 10 0;
#X connect 3 0 35 0;
#X connect 4 0 5 0;
#X connect 5 0 29 0;
#X connect 6 0 19 0;
#X connect 7 0 3 0;
#X connect 7 1 1 0;
#X connect 8 0 28 0;
#X connect 9 0 26 0;
#X connect 11 0 9 0;
#X connect 12 0 20 0;
#X connect 13 0 2 0;
#X connect 20 0 22 0;
#X connect 21 0 18 0;
#X connect 22 0 2 1;
#X connect 23 0 24 0;
#X connect 24 0 0 0;
#X connect 25 0 22 1;
#X connect 26 0 29 1;
#X connect 27 0 26 1;
#X connect 28 0 6 0;
#X connect 29 0 8 0;
#X connect 30 0 32 0;
#X connect 30 0 21 0;
#X connect 35 0 4 0;
#X restore 694 317 pd RS5;
#N canvas 133 261 530 635 RS6 0;
#X obj 336 316 mtof;
#X obj 313 244 bng 30 250 50 0 empty empty empty 0 -10 0 12 #fcfcfc #000000 #000000;
#X obj 78 177 metro 200, f 14;
#X obj 79 242 bng 30 250 50 0 empty empty empty 0 -10 0 12 #fcfcfc #000000 #000000;
#X obj 79 334 / 100;
#X floatatom 79 358 5 0 0 0 - - - 0;
#X obj 77 481 vline~;
#X obj 78 207 t b b, f 34;
#X listbox 79 425 20 0 0 0 - - - 0;
#X obj 181 335 random 200;
#X obj 90 284 s bang;
#X obj 181 307 r bang;
#X obj 173 84 r bang;
#X obj 31 72 inlet toggle;
#X obj 196 650 s~ sound;
#X obj 99 657 s~ ampl;
#X obj 206 660 s~ sound;
#X obj 109 667 s~ ampl;
#X obj 335 430 outlet~;
#X obj 77 522 outlet~;
#X obj 173 112 random 200;
#X obj 337 382 osc~;
#X obj 173 140 + 300;
#X obj 389 263 inlet pitch;
#X floatatom 350 288 5 0 0 0 - - - 0;
#X obj 239 142 inlet rhythm;
#X obj 181 361 + 200;
#X obj 230 360 inlet lengde;
#X msg 79 452 \$1 20 \, 0 \$2 20;
#X obj 79 393 pack f f, f 15;
#X obj 337 344 * 1.00455;
#X floatatom 395 316 5 0 0 0 - - - 0;
#X floatatom 394 372 5 0 0 0 - - - 0;
#X text 406 346 Adjustment 440Hz to 442Hz;
#X text 30 18 Random sinewaves #6;
#X obj 79 310 random 55, f 12;
#X connect 0 0 30 0;
#X connect 0 0 31 0;
#X connect 1 0 24 0;
#X connect 2 0 7 0;
#X connect 3 0 10 0;
#X connect 3 0 35 0;
#X connect 4 0 5 0;
#X connect 5 0 29 0;
#X connect 6 0 19 0;
#X connect 7 0 3 0;
#X connect 7 1 1 0;
#X connect 8 0 28 0;
#X connect 9 0 26 0;
#X connect 11 0 9 0;
#X connect 12 0 20 0;
#X connect 13 0 2 0;
#X connect 20 0 22 0;
#X connect 21 0 18 0;
#X connect 22 0 2 1;
#X connect 23 0 24 0;
#X connect 24 0 0 0;
#X connect 25 0 22 1;
#X connect 26 0 29 1;
#X connect 27 0 26 1;
#X connect 28 0 6 0;
#X connect 29 0 8 0;
#X connect 30 0 32 0;
#X connect 30 0 21 0;
#X connect 35 0 4 0;
#X restore 694 360 pd RS6;
#N canvas 225 237 612 562 LS1 0;
#X obj 30 75 inlet toggle;
#X obj 176 249 inlet length;
#X obj 71 370 vline~;
#X listbox 73 314 20 0 0 0 - - - 0;
#X obj 71 411 outlet~;
#X obj 73 282 pack f f, f 15;
#X obj 339 322 mtof;
#X obj 316 250 bng 30 250 50 0 empty empty empty 0 -10 0 12 #fcfcfc #000000 #000000;
#X obj 338 436 outlet~;
#X obj 339 387 osc~;
#X obj 392 269 inlet pitch;
#X floatatom 353 294 5 0 0 0 - - - 0;
#X obj 29 115 t b b, f 39;
#X obj 77 197 inlet vol;
#X msg 73 341 \$1 200 \, 0 600 \$2;
#X obj 340 352 * 1.00455;
#X floatatom 398 322 5 0 0 0 - - - 0;
#X floatatom 397 378 5 0 0 0 - - - 0;
#X text 409 352 Adjustment 440Hz to 442Hz;
#X text 28 17 Long sinewaves #1;
#X connect 0 0 12 0;
#X connect 1 0 5 1;
#X connect 2 0 4 0;
#X connect 3 0 14 0;
#X connect 5 0 3 0;
#X connect 6 0 16 0;
#X connect 6 0 15 0;
#X connect 7 0 11 0;
#X connect 9 0 8 0;
#X connect 10 0 11 0;
#X connect 11 0 6 0;
#X connect 12 0 5 0;
#X connect 12 1 7 0;
#X connect 13 0 5 0;
#X connect 14 0 2 0;
#X connect 15 0 17 0;
#X connect 15 0 9 0;
#X restore 694 472 pd LS1;
#N canvas 230 485 612 562 LS2 0;
#X obj 29 90 inlet toggle;
#X obj 175 264 inlet length;
#X obj 70 385 vline~;
#X listbox 72 329 20 0 0 0 - - - 0;
#X obj 70 426 outlet~;
#X obj 72 297 pack f f, f 15;
#X obj 338 337 mtof;
#X obj 315 265 bng 30 250 50 0 empty empty empty 0 -10 0 12 #fcfcfc #000000 #000000;
#X obj 337 451 outlet~;
#X obj 340 403 osc~;
#X obj 391 284 inlet pitch;
#X floatatom 352 309 5 0 0 0 - - - 0;
#X obj 28 130 t b b, f 39;
#X obj 76 212 inlet vol;
#X msg 72 356 \$1 200 \, 0 600 \$2;
#X obj 339 365 * 1.00455;
#X floatatom 397 337 5 0 0 0 - - - 0;
#X floatatom 396 393 5 0 0 0 - - - 0;
#X text 408 367 Adjustment 440Hz to 442Hz;
#X text 28 17 Long sinewaves #2;
#X connect 0 0 12 0;
#X connect 1 0 5 1;
#X connect 2 0 4 0;
#X connect 3 0 14 0;
#X connect 5 0 3 0;
#X connect 6 0 16 0;
#X connect 6 0 15 0;
#X connect 7 0 11 0;
#X connect 9 0 8 0;
#X connect 10 0 11 0;
#X connect 11 0 6 0;
#X connect 12 0 5 0;
#X connect 12 1 7 0;
#X connect 13 0 5 0;
#X connect 14 0 2 0;
#X connect 15 0 17 0;
#X connect 15 0 9 0;
#X restore 694 516 pd LS2;
#N canvas 159 365 612 562 LS3 0;
#X obj 33 89 inlet toggle;
#X obj 179 263 inlet length;
#X obj 74 384 vline~;
#X listbox 76 328 20 0 0 0 - - - 0;
#X obj 74 425 outlet~;
#X obj 76 296 pack f f, f 15;
#X obj 342 336 mtof;
#X obj 319 264 bng 30 250 50 0 empty empty empty 0 -10 0 12 #fcfcfc #000000 #000000;
#X obj 341 450 outlet~;
#X obj 343 402 osc~;
#X obj 395 283 inlet pitch;
#X floatatom 356 308 5 0 0 0 - - - 0;
#X obj 32 129 t b b, f 39;
#X obj 80 211 inlet vol;
#X msg 76 355 \$1 200 \, 0 600 \$2;
#X obj 343 364 * 1.00455;
#X floatatom 401 336 5 0 0 0 - - - 0;
#X floatatom 400 392 5 0 0 0 - - - 0;
#X text 412 366 Adjustment 440Hz to 442Hz;
#X text 28 17 Long sinewaves #3;
#X connect 0 0 12 0;
#X connect 1 0 5 1;
#X connect 2 0 4 0;
#X connect 3 0 14 0;
#X connect 5 0 3 0;
#X connect 6 0 15 0;
#X connect 6 0 16 0;
#X connect 7 0 11 0;
#X connect 9 0 8 0;
#X connect 10 0 11 0;
#X connect 11 0 6 0;
#X connect 12 0 5 0;
#X connect 12 1 7 0;
#X connect 13 0 5 0;
#X connect 14 0 2 0;
#X connect 15 0 17 0;
#X connect 15 0 9 0;
#X restore 694 559 pd LS3;
#N canvas 164 383 612 562 LS4 0;
#X obj 29 103 inlet toggle;
#X obj 178 280 inlet length;
#X obj 73 401 vline~;
#X listbox 75 345 20 0 0 0 - - - 0;
#X obj 73 442 outlet~;
#X obj 75 313 pack f f, f 15;
#X obj 341 353 mtof;
#X obj 318 281 bng 30 250 50 0 empty empty empty 0 -10 0 12 #fcfcfc #000000 #000000;
#X obj 340 467 outlet~;
#X obj 341 418 osc~;
#X obj 394 300 inlet pitch;
#X floatatom 355 325 5 0 0 0 - - - 0;
#X obj 31 146 t b b, f 39;
#X obj 79 228 inlet vol;
#X msg 75 372 \$1 200 \, 0 600 \$2;
#X obj 342 381 * 1.00455;
#X floatatom 400 353 5 0 0 0 - - - 0;
#X floatatom 399 409 5 0 0 0 - - - 0;
#X text 411 383 Adjustment 440Hz to 442Hz;
#X text 28 17 Long sinewaves #4;
#X connect 0 0 12 0;
#X connect 1 0 5 1;
#X connect 2 0 4 0;
#X connect 3 0 14 0;
#X connect 5 0 3 0;
#X connect 6 0 16 0;
#X connect 6 0 15 0;
#X connect 7 0 11 0;
#X connect 9 0 8 0;
#X connect 10 0 11 0;
#X connect 11 0 6 0;
#X connect 12 0 5 0;
#X connect 12 1 7 0;
#X connect 13 0 5 0;
#X connect 14 0 2 0;
#X connect 15 0 17 0;
#X connect 15 0 9 0;
#X restore 694 602 pd LS4;
#N canvas 120 317 612 562 LS5 1;
#X obj 33 97 inlet toggle;
#X obj 179 271 inlet length;
#X obj 74 392 vline~;
#X listbox 76 336 20 0 0 0 - - - 0;
#X obj 74 433 outlet~;
#X obj 76 304 pack f f, f 15;
#X obj 342 344 mtof;
#X obj 319 272 bng 30 250 50 0 empty empty empty 0 -10 0 12 #fcfcfc #000000 #000000;
#X obj 341 458 outlet~;
#X obj 344 406 osc~;
#X obj 395 291 inlet pitch;
#X floatatom 356 316 5 0 0 0 - - - 0;
#X obj 32 137 t b b, f 39;
#X obj 80 219 inlet vol;
#X msg 76 363 \$1 200 \, 0 600 \$2;
#X obj 343 372 * 1.00455;
#X floatatom 401 344 5 0 0 0 - - - 0;
#X floatatom 400 400 5 0 0 0 - - - 0;
#X text 412 374 Adjustment 440Hz to 442Hz;
#X text 28 17 Long sinewaves #5;
#X connect 0 0 12 0;
#X connect 1 0 5 1;
#X connect 2 0 4 0;
#X connect 3 0 14 0;
#X connect 5 0 3 0;
#X connect 6 0 15 0;
#X connect 6 0 16 0;
#X connect 7 0 11 0;
#X connect 9 0 8 0;
#X connect 10 0 11 0;
#X connect 11 0 6 0;
#X connect 12 0 5 0;
#X connect 12 1 7 0;
#X connect 13 0 5 0;
#X connect 14 0 2 0;
#X connect 15 0 17 0;
#X connect 15 0 9 0;
#X restore 694 645 pd LS5;
#N canvas 120 317 612 562 LS6 1;
#X obj 31 80 inlet toggle;
#X obj 177 254 inlet length;
#X obj 72 375 vline~;
#X listbox 74 319 20 0 0 0 - - - 0;
#X obj 72 416 outlet~;
#X obj 74 287 pack f f, f 15;
#X obj 340 327 mtof;
#X obj 317 255 bng 30 250 50 0 empty empty empty 0 -10 0 12 #fcfcfc #000000 #000000;
#X obj 339 441 outlet~;
#X obj 339 391 osc~;
#X obj 393 274 inlet pitch;
#X floatatom 354 299 5 0 0 0 - - - 0;
#X obj 30 120 t b b, f 39;
#X obj 78 202 inlet vol;
#X msg 74 346 \$1 200 \, 0 600 \$2;
#X obj 339 357 * 1.00455;
#X floatatom 399 327 5 0 0 0 - - - 0;
#X floatatom 398 383 5 0 0 0 - - - 0;
#X text 410 357 Adjustment 440Hz to 442Hz;
#X text 29 18 Long sinewaves #6;
#X connect 0 0 12 0;
#X connect 1 0 5 1;
#X connect 2 0 4 0;
#X connect 3 0 14 0;
#X connect 5 0 3 0;
#X connect 6 0 16 0;
#X connect 6 0 15 0;
#X connect 7 0 11 0;
#X connect 9 0 8 0;
#X connect 10 0 11 0;
#X connect 11 0 6 0;
#X connect 12 0 5 0;
#X connect 12 1 7 0;
#X connect 13 0 5 0;
#X connect 14 0 2 0;
#X connect 15 0 17 0;
#X connect 15 0 9 0;
#X restore 694 688 pd LS6;
#N canvas 868 530 450 300 pS 0;
#X obj 16 82 inlet;
#X obj 16 123 pack 1 0 0 0, f 28;
#X obj 16 146 s LS1;
#X text 92 82 Vol. |Length|Pitch;
#X obj 16 101 delay 3000;
#X text 14 8 Start: Long sines(1) g# 35";
#X msg 132 101 30000;
#X text 234 110 g#;
#X msg 181 100 56;
#X msg 93 101 0.4;
#X connect 0 0 9 0;
#X connect 0 0 6 0;
#X connect 0 0 4 0;
#X connect 0 0 8 0;
#X connect 1 0 2 0;
#X connect 4 0 1 0;
#X connect 6 0 1 2;
#X connect 8 0 1 3;
#X connect 9 0 1 1;
#X restore 67 418 pd pS;
#N canvas 748 222 606 731 p1 0;
#X obj 53 98 pack 1 0 0 0, f 16;
#X obj 173 98 t b b;
#X obj 215 97 delay 10;
#X obj 15 56 inlet;
#X obj 53 121 s RS1;
#X obj 215 120 s S1, f 5;
#X obj 52 192 pack 1 0 0 0, f 16;
#X obj 175 191 t b b;
#X obj 217 191 delay 10;
#X obj 55 215 s RS2;
#X obj 217 214 s S2, f 5;
#X obj 55 284 pack 1 0 0 0, f 16;
#X obj 175 283 t b b;
#X obj 217 283 delay 10;
#X text 95 242 Length|Rhythm|Pitch|Stop;
#X obj 55 307 s RS3;
#X obj 217 306 s S3, f 5;
#X obj 52 380 pack 1 0 0 0, f 16;
#X obj 172 380 t b b;
#X obj 214 379 delay 10;
#X obj 54 474 pack 1 0 0 0, f 16;
#X obj 174 473 t b b;
#X obj 216 473 delay 10;
#X text 94 432 Length|Rhythm|Pitch|Stop;
#X obj 54 566 pack 1 0 0 0, f 16;
#X obj 174 565 t b b;
#X msg 94 543 400;
#X obj 216 565 delay 10;
#X text 94 524 Length|Rhythm|Pitch|Stop;
#X text 94 341 Length|Rhythm|Pitch|Stop;
#X obj 12 532 delay 4000;
#X obj 52 403 s RS4;
#X obj 214 402 s S4, f 5;
#X obj 54 497 s RS5;
#X obj 54 589 s RS6;
#X obj 216 588 s S6, f 5;
#X obj 216 496 s S5, f 5;
#X text 14 27 1: Random Sines(6) c \, c# \, d# +d \, e \, f 45";
#X text 69 150 c# |Length|Rhythm|Pitch|Stop;
#X text 73 56 d |Length|Rhythm|Pitch|Stop;
#X msg 231 74 45000;
#X obj 17 260 delay 5000;
#X msg 233 261 35000;
#X text 301 86 d1;
#X text 299 178 c#1;
#X text 303 276 d#1;
#X obj 10 451 delay 12000;
#X msg 232 451 13000;
#X obj 14 357 delay 8000;
#X msg 230 358 29000;
#X text 304 367 e1;
#X text 304 462 f1;
#X msg 232 543 12000;
#X msg 189 75 62;
#X msg 191 169 61;
#X msg 190 261 63;
#X msg 188 357 64;
#X msg 189 450 65;
#X msg 189 543 60;
#X msg 233 169 45000;
#X msg 143 169 900;
#X msg 93 75 700;
#X msg 143 261 920;
#X msg 95 169 240;
#X msg 95 261 250;
#X msg 140 357 1000;
#X msg 92 357 260;
#X msg 94 451 550;
#X msg 142 543 1300;
#X msg 141 75 3600;
#X msg 142 451 2700;
#X connect 0 0 4 0;
#X connect 1 0 2 0;
#X connect 1 1 40 0;
#X connect 2 0 5 0;
#X connect 3 0 61 0;
#X connect 3 0 69 0;
#X connect 3 0 53 0;
#X connect 3 0 0 0;
#X connect 3 0 6 0;
#X connect 3 0 63 0;
#X connect 3 0 60 0;
#X connect 3 0 54 0;
#X connect 3 0 1 0;
#X connect 3 0 7 0;
#X connect 3 0 66 0;
#X connect 3 0 65 0;
#X connect 3 0 56 0;
#X connect 3 0 67 0;
#X connect 3 0 70 0;
#X connect 3 0 57 0;
#X connect 3 0 26 0;
#X connect 3 0 68 0;
#X connect 3 0 58 0;
#X connect 3 0 30 0;
#X connect 3 0 41 0;
#X connect 3 0 46 0;
#X connect 3 0 48 0;
#X connect 3 0 64 0;
#X connect 3 0 62 0;
#X connect 3 0 55 0;
#X connect 6 0 9 0;
#X connect 7 0 8 0;
#X connect 7 1 59 0;
#X connect 8 0 10 0;
#X connect 11 0 15 0;
#X connect 12 0 13 0;
#X connect 12 1 42 0;
#X connect 13 0 16 0;
#X connect 17 0 31 0;
#X connect 18 0 19 0;
#X connect 18 1 49 0;
#X connect 19 0 32 0;
#X connect 20 0 33 0;
#X connect 21 0 22 0;
#X connect 21 1 47 0;
#X connect 22 0 36 0;
#X connect 24 0 34 0;
#X connect 25 0 27 0;
#X connect 25 1 52 0;
#X connect 26 0 24 1;
#X connect 27 0 35 0;
#X connect 30 0 24 0;
#X connect 30 0 25 0;
#X connect 40 0 2 1;
#X connect 41 0 11 0;
#X connect 41 0 12 0;
#X connect 42 0 13 1;
#X connect 46 0 20 0;
#X connect 46 0 21 0;
#X connect 47 0 22 1;
#X connect 48 0 17 0;
#X connect 48 0 18 0;
#X connect 49 0 19 1;
#X connect 52 0 27 1;
#X connect 53 0 0 3;
#X connect 54 0 6 3;
#X connect 55 0 11 3;
#X connect 56 0 17 3;
#X connect 57 0 20 3;
#X connect 58 0 24 3;
#X connect 59 0 8 1;
#X connect 60 0 6 2;
#X connect 61 0 0 1;
#X connect 62 0 11 2;
#X connect 63 0 6 1;
#X connect 64 0 11 1;
#X connect 65 0 17 2;
#X connect 66 0 17 1;
#X connect 67 0 20 1;
#X connect 68 0 24 2;
#X connect 69 0 0 2;
#X connect 70 0 20 2;
#X restore 215 419 pd p1;
#X obj 22 454 cnv 19 140 60 empty empty 3 10 35 0 50 #e0e0e0 #404040 0;
#X obj 112 465 bng 40 250 50 0 empty empty empty 0 -10 0 12 #fcfcfc #000000 #000000;
#X obj 67 464 r p3, f 5;
#N canvas 676 318 753 513 p3 0;
#X obj 16 35 inlet;
#X obj 16 128 pack 1 0 0 0, f 28;
#X text 99 82 Vol. |Length|Pitch;
#X obj 240 148 s LS1;
#X obj 17 202 pack 1 0 0 0, f 28;
#X text 100 156 Vol. |Length|Pitch;
#X obj 238 222 s LS2;
#X obj 16 101 delay 1000;
#X text 267 109 a#2;
#X msg 139 101 3000;
#X obj 22 288 pack 1 0 0 0, f 28;
#X obj 243 308 s LS3;
#X text 269 185 b2;
#X msg 360 109 2000;
#X obj 306 99 t b b;
#X obj 487 110 t b b;
#X text 438 103 b2;
#X text 590 103 a#2;
#X msg 547 110 7000;
#X obj 7 172 delay 7000;
#X msg 140 175 6000;
#X obj 12 258 delay 9000;
#X msg 145 261 4000;
#X msg 101 175 0.3;
#X obj 309 65 delay 3000;
#X obj 489 67 delay 2000;
#X msg 188 101 82;
#X msg 406 110 83;
#X msg 189 175 86;
#X msg 195 260 94;
#X msg 100 101 0.35;
#X msg 106 261 0.15;
#X connect 0 0 30 0;
#X connect 0 0 9 0;
#X connect 0 0 26 0;
#X connect 0 0 23 0;
#X connect 0 0 28 0;
#X connect 0 0 20 0;
#X connect 0 0 7 0;
#X connect 0 0 31 0;
#X connect 0 0 22 0;
#X connect 0 0 29 0;
#X connect 0 0 19 0;
#X connect 0 0 21 0;
#X connect 1 0 3 0;
#X connect 4 0 6 0;
#X connect 7 0 1 0;
#X connect 7 0 24 0;
#X connect 9 0 1 2;
#X connect 10 0 11 0;
#X connect 13 0 1 2;
#X connect 14 0 1 0;
#X connect 14 1 13 0;
#X connect 14 1 27 0;
#X connect 15 0 1 0;
#X connect 15 1 18 0;
#X connect 15 1 26 0;
#X connect 18 0 1 2;
#X connect 19 0 4 0;
#X connect 20 0 4 2;
#X connect 21 0 10 0;
#X connect 22 0 10 2;
#X connect 23 0 4 1;
#X connect 24 0 14 0;
#X connect 24 0 25 0;
#X connect 25 0 15 0;
#X connect 26 0 1 3;
#X connect 27 0 1 3;
#X connect 28 0 4 3;
#X connect 29 0 10 3;
#X connect 30 0 1 1;
#X connect 31 0 10 1;
#X restore 67 485 pd p3;
#X obj 318 387 cnv 19 140 60 empty empty 2 10 35 0 50 #e0e0e0 #404040 0;
#X obj 408 398 bng 40 250 50 0 empty empty empty 0 -10 0 12 #fcfcfc #000000 #000000;
#X obj 363 398 r p2, f 5;
#N canvas 1062 551 450 300 p2 0;
#X obj 16 82 inlet;
#X obj 16 123 pack 1 0 0 0, f 28;
#X obj 16 146 s LS1;
#X text 92 82 Vol. |Length|Pitch;
#X text 14 8 Start: Long sines(1) g# 35";
#X msg 132 101 35000;
#X msg 180 100 61;
#X msg 93 101 0.4;
#X connect 0 0 7 0;
#X connect 0 0 5 0;
#X connect 0 0 6 0;
#X connect 0 0 1 0;
#X connect 1 0 2 0;
#X connect 5 0 1 2;
#X connect 6 0 1 3;
#X connect 7 0 1 1;
#X restore 363 419 pd p2;
#X obj 170 455 cnv 19 140 60 empty empty 4 10 35 0 50 #e0e0e0 #404040 0;
#X obj 260 466 bng 40 250 50 0 empty empty empty 0 -10 0 12 #fcfcfc #000000 #000000;
#X obj 215 466 r p4, f 5;
#N canvas 1062 282 450 300 p4 0;
#X obj 16 82 inlet;
#X obj 16 123 pack 1 0 0 0, f 28;
#X obj 16 146 s LS1;
#X text 92 82 Vol. |Length|Pitch;
#X text 14 8 4: Long sines(1) g# 35";
#X obj 16 101 delay 7000;
#X msg 132 101 37000;
#X msg 181 100 56;
#X msg 93 101 0.2;
#X connect 0 0 8 0;
#X connect 0 0 6 0;
#X connect 0 0 7 0;
#X connect 0 0 5 0;
#X connect 1 0 2 0;
#X connect 5 0 1 0;
#X connect 6 0 1 2;
#X connect 7 0 1 3;
#X connect 8 0 1 1;
#X restore 215 487 pd p4;
#X obj 319 456 cnv 19 140 60 empty empty 5 10 35 0 50 #e0e0e0 #404040 0;
#X obj 409 467 bng 40 250 50 0 empty empty empty 0 -10 0 12 #fcfcfc #000000 #000000;
#X obj 364 466 r p5, f 5;
#N canvas 103 82 1409 872 p5 0;
#X obj 40 39 inlet;
#X obj 40 132 pack 1 0 0 0, f 28;
#X text 123 86 Vol. |Length|Pitch;
#X obj 211 151 s LS1;
#X obj 50 239 pack 1 0 0 0, f 28;
#X text 134 194 Vol. |Length|Pitch;
#X obj 222 258 s LS2;
#X text 16 -2 5: Long sines(2) g# +f# g#-c -f# c-c# +f#-e c#-e e-d# d#-c# e-c# -c# 72", f 42;
#X msg 163 105 8000;
#X obj 40 209 delay 2000;
#X msg 173 212 9000;
#X text 335 97 Vol. |Length|Pitch;
#X msg 374 112 9000;
#X obj 292 71 delay 8000;
#X text 549 93 Vol. |Length|Pitch;
#X obj 292 93 t b b;
#X obj 506 92 t b b;
#X obj 506 70 delay 9000;
#X msg 589 111 14000;
#X text 758 93 Vol. |Length|Pitch;
#X obj 715 92 t b b;
#X obj 715 70 delay 14000;
#X msg 798 111 19000;
#X text 950 94 Vol. |Length|Pitch;
#X obj 907 93 t b b;
#X obj 907 71 delay 19000;
#X msg 990 112 10000;
#X text 332 202 Vol. |Length|Pitch;
#X obj 289 201 t b b;
#X msg 372 220 3500;
#X text 544 202 Vol. |Length|Pitch;
#X obj 501 201 t b b;
#X obj 501 179 delay 3500;
#X msg 584 220 10500;
#X text 760 202 Vol. |Length|Pitch;
#X obj 717 201 t b b;
#X obj 717 179 delay 10500;
#X msg 800 220 9000;
#X text 955 201 Vol. |Length|Pitch;
#X obj 912 200 t b b;
#X obj 912 178 delay 9000;
#X msg 995 219 27000;
#X msg 337 112 0.3;
#X msg 549 111 0.3;
#X msg 758 111 0.3;
#X msg 950 112 0.3;
#X msg 332 220 0.2;
#X msg 544 220 0.2;
#X msg 760 220 0.2;
#X msg 955 219 0.2;
#X obj 52 336 pack 1 0 0 0, f 16;
#X obj 172 337 t b b;
#X obj 214 335 delay 10;
#X obj 52 359 s RS1;
#X obj 214 358 s S1, f 5;
#X obj 54 430 pack 1 0 0 0, f 16;
#X obj 174 429 t b b;
#X msg 94 407 400;
#X obj 216 429 delay 10;
#X obj 54 453 s RS2;
#X obj 216 452 s S2, f 5;
#X obj 54 522 pack 1 0 0 0, f 16;
#X obj 174 521 t b b;
#X obj 216 521 delay 10;
#X text 94 480 Length|Rhythm|Pitch|Stop;
#X obj 54 545 s RS3;
#X obj 216 544 s S3, f 5;
#X obj 51 618 pack 1 0 0 0, f 16;
#X obj 171 618 t b b;
#X obj 213 617 delay 10;
#X obj 53 712 pack 1 0 0 0, f 16;
#X obj 173 711 t b b;
#X obj 215 711 delay 10;
#X text 93 670 Length|Rhythm|Pitch|Stop;
#X text 93 579 Length|Rhythm|Pitch|Stop;
#X obj 51 641 s RS4;
#X obj 213 640 s S4, f 5;
#X obj 53 735 s RS5;
#X obj 215 734 s S5, f 5;
#X text 68 388 c# |Length|Rhythm|Pitch|Stop;
#X msg 231 689 13000;
#X obj 11 595 delay 8000;
#X obj 3 312 delay 30000;
#X msg 230 312 22500;
#X obj 13 407 delay 1000;
#X msg 232 407 28000;
#X obj 14 500 delay 8000;
#X msg 232 499 16000;
#X msg 229 596 21000;
#X obj 14 689 delay 11000;
#X obj 289 179 delay 20500;
#X msg 211 104 56;
#X msg 423 112 60;
#X msg 637 111 61;
#X msg 846 111 64;
#X msg 1038 112 61;
#X msg 222 211 75;
#X msg 419 220 75;
#X msg 632 221 76;
#X msg 848 220 75;
#X msg 1043 219 73;
#X msg 188 313 63;
#X msg 190 408 64;
#X msg 190 499 61;
#X msg 187 596 60;
#X msg 189 689 62;
#X msg 124 105 0.2;
#X msg 140 313 700;
#X msg 93 689 1000;
#X msg 92 313 170;
#X msg 94 499 370;
#X msg 91 595 420;
#X msg 134 212 0.2;
#X msg 142 407 1700;
#X msg 142 499 1400;
#X msg 139 595 1800;
#X msg 141 689 3700;
#X connect 0 0 106 0;
#X connect 0 0 8 0;
#X connect 0 0 91 0;
#X connect 0 0 112 0;
#X connect 0 0 96 0;
#X connect 0 0 10 0;
#X connect 0 0 1 0;
#X connect 0 0 9 0;
#X connect 0 0 13 0;
#X connect 0 0 82 0;
#X connect 0 0 109 0;
#X connect 0 0 107 0;
#X connect 0 0 101 0;
#X connect 0 0 57 0;
#X connect 0 0 113 0;
#X connect 0 0 102 0;
#X connect 0 0 110 0;
#X connect 0 0 114 0;
#X connect 0 0 103 0;
#X connect 0 0 111 0;
#X connect 0 0 115 0;
#X connect 0 0 104 0;
#X connect 0 0 108 0;
#X connect 0 0 116 0;
#X connect 0 0 105 0;
#X connect 1 0 3 0;
#X connect 4 0 6 0;
#X connect 8 0 1 2;
#X connect 9 0 4 0;
#X connect 9 0 90 0;
#X connect 10 0 4 2;
#X connect 12 0 1 2;
#X connect 13 0 15 0;
#X connect 13 0 17 0;
#X connect 15 0 1 0;
#X connect 15 1 42 0;
#X connect 15 1 12 0;
#X connect 15 1 92 0;
#X connect 16 0 1 0;
#X connect 16 1 43 0;
#X connect 16 1 18 0;
#X connect 16 1 93 0;
#X connect 17 0 16 0;
#X connect 17 0 21 0;
#X connect 18 0 1 2;
#X connect 20 0 1 0;
#X connect 20 1 44 0;
#X connect 20 1 94 0;
#X connect 20 1 22 0;
#X connect 21 0 20 0;
#X connect 21 0 25 0;
#X connect 22 0 1 2;
#X connect 24 0 1 0;
#X connect 24 1 45 0;
#X connect 24 1 26 0;
#X connect 24 1 95 0;
#X connect 25 0 24 0;
#X connect 26 0 1 2;
#X connect 28 0 4 0;
#X connect 28 1 46 0;
#X connect 28 1 29 0;
#X connect 28 1 97 0;
#X connect 29 0 4 2;
#X connect 31 0 4 0;
#X connect 31 1 47 0;
#X connect 31 1 33 0;
#X connect 31 1 98 0;
#X connect 32 0 31 0;
#X connect 32 0 36 0;
#X connect 33 0 4 2;
#X connect 35 0 4 0;
#X connect 35 1 48 0;
#X connect 35 1 37 0;
#X connect 35 1 99 0;
#X connect 36 0 35 0;
#X connect 36 0 40 0;
#X connect 37 0 4 2;
#X connect 39 0 4 0;
#X connect 39 1 49 0;
#X connect 39 1 41 0;
#X connect 39 1 100 0;
#X connect 40 0 39 0;
#X connect 41 0 4 2;
#X connect 42 0 1 1;
#X connect 43 0 1 1;
#X connect 44 0 1 1;
#X connect 45 0 1 1;
#X connect 46 0 4 1;
#X connect 47 0 4 1;
#X connect 48 0 4 1;
#X connect 49 0 4 1;
#X connect 50 0 53 0;
#X connect 51 0 52 0;
#X connect 51 1 83 0;
#X connect 52 0 54 0;
#X connect 55 0 59 0;
#X connect 56 0 58 0;
#X connect 56 1 85 0;
#X connect 57 0 55 1;
#X connect 58 0 60 0;
#X connect 61 0 65 0;
#X connect 62 0 63 0;
#X connect 62 1 87 0;
#X connect 63 0 66 0;
#X connect 67 0 75 0;
#X connect 68 0 69 0;
#X connect 68 1 88 0;
#X connect 69 0 76 0;
#X connect 70 0 77 0;
#X connect 71 0 72 0;
#X connect 71 1 80 0;
#X connect 72 0 78 0;
#X connect 80 0 72 1;
#X connect 81 0 67 0;
#X connect 81 0 68 0;
#X connect 82 0 50 0;
#X connect 82 0 51 0;
#X connect 82 0 84 0;
#X connect 82 0 81 0;
#X connect 82 0 86 0;
#X connect 82 0 89 0;
#X connect 83 0 52 1;
#X connect 84 0 55 0;
#X connect 84 0 56 0;
#X connect 85 0 58 1;
#X connect 86 0 61 0;
#X connect 86 0 62 0;
#X connect 87 0 63 1;
#X connect 88 0 69 1;
#X connect 89 0 70 0;
#X connect 89 0 71 0;
#X connect 90 0 28 0;
#X connect 90 0 32 0;
#X connect 91 0 1 3;
#X connect 92 0 1 3;
#X connect 93 0 1 3;
#X connect 94 0 1 3;
#X connect 95 0 1 3;
#X connect 96 0 4 3;
#X connect 97 0 4 3;
#X connect 98 0 4 3;
#X connect 99 0 4 3;
#X connect 100 0 4 3;
#X connect 101 0 50 3;
#X connect 102 0 55 3;
#X connect 103 0 61 3;
#X connect 104 0 67 3;
#X connect 105 0 70 3;
#X connect 106 0 1 1;
#X connect 107 0 50 2;
#X connect 108 0 70 1;
#X connect 109 0 50 1;
#X connect 110 0 61 1;
#X connect 111 0 67 1;
#X connect 112 0 4 1;
#X connect 113 0 55 2;
#X connect 114 0 61 2;
#X connect 115 0 67 2;
#X connect 116 0 70 2;
#X restore 364 487 pd p5;
#X obj 21 522 cnv 19 140 60 empty empty 6 10 35 0 50 #e0e0e0 #404040 0;
#X obj 111 533 bng 40 250 50 0 empty empty empty 0 -10 0 12 #fcfcfc #000000 #000000;
#X obj 169 523 cnv 19 140 60 empty empty 7 10 35 0 50 #e0e0e0 #404040 0;
#X obj 259 534 bng 40 250 50 0 empty empty empty 0 -10 0 12 #fcfcfc #000000 #000000;
#X obj 319 524 cnv 19 140 60 empty empty 8 10 35 0 50 #e0e0e0 #404040 0;
#X obj 409 535 bng 40 250 50 0 empty empty empty 0 -10 0 12 #fcfcfc #000000 #000000;
#X obj 22 590 cnv 19 140 60 empty empty 9 10 35 0 50 #e0e0e0 #404040 0;
#X obj 112 601 bng 40 250 50 0 empty empty empty 0 -10 0 12 #fcfcfc #000000 #000000;
#X obj 170 591 cnv 19 180 60 empty empty 10 10 35 0 50 #e0e0e0 #404040 0;
#X obj 301 603 bng 40 250 50 0 empty empty empty 0 -10 0 12 #fcfcfc #000000 #000000;
#X obj 66 532 r p6, f 5;
#N canvas 774 305 450 589 p6 0;
#X obj 16 35 inlet;
#X obj 16 128 pack 1 0 0 0, f 28;
#X text 99 82 Vol. |Length|Pitch;
#X obj 240 148 s LS1;
#X obj 17 202 pack 1 0 0 0, f 28;
#X text 100 156 Vol. |Length|Pitch;
#X obj 238 222 s LS2;
#X obj 16 101 delay 1000;
#X obj 23 285 pack 1 0 0 0, f 28;
#X obj 28 379 pack 1 0 0 0, f 28;
#X obj 7 172 delay 1000;
#X obj 244 305 s LS3;
#X msg 139 101 20000;
#X msg 140 175 20000;
#X msg 146 257 10000;
#X obj 249 399 s LS4;
#X obj 13 255 delay 11000;
#X obj 18 349 delay 15000;
#X msg 151 352 6000;
#X msg 188 100 73;
#X msg 189 175 75;
#X msg 194 257 76;
#X msg 199 351 80;
#X msg 100 101 0.15;
#X msg 112 352 0.12;
#X msg 101 175 0.16;
#X msg 107 258 0.17;
#X connect 0 0 23 0;
#X connect 0 0 12 0;
#X connect 0 0 19 0;
#X connect 0 0 25 0;
#X connect 0 0 20 0;
#X connect 0 0 13 0;
#X connect 0 0 7 0;
#X connect 0 0 10 0;
#X connect 0 0 16 0;
#X connect 0 0 17 0;
#X connect 0 0 26 0;
#X connect 0 0 14 0;
#X connect 0 0 21 0;
#X connect 0 0 24 0;
#X connect 0 0 18 0;
#X connect 0 0 22 0;
#X connect 1 0 3 0;
#X connect 4 0 6 0;
#X connect 7 0 1 0;
#X connect 8 0 11 0;
#X connect 9 0 15 0;
#X connect 10 0 4 0;
#X connect 12 0 1 2;
#X connect 13 0 4 2;
#X connect 14 0 8 2;
#X connect 16 0 8 0;
#X connect 17 0 9 0;
#X connect 18 0 9 2;
#X connect 19 0 1 3;
#X connect 20 0 4 3;
#X connect 21 0 8 3;
#X connect 22 0 9 3;
#X connect 23 0 1 1;
#X connect 24 0 9 1;
#X connect 25 0 4 1;
#X connect 26 0 8 1;
#X restore 66 553 pd p6;
#X obj 214 533 r p7, f 5;
#N canvas 595 198 835 419 p7 0;
#X obj 16 35 inlet;
#X obj 16 128 pack 1 0 0 0, f 28;
#X msg 139 101 5000;
#X text 99 82 Vol. |Length|Pitch;
#X obj 240 148 s LS1;
#X obj 17 202 pack 1 0 0 0, f 28;
#X text 100 156 Vol. |Length|Pitch;
#X obj 238 222 s LS2;
#X obj 27 285 pack 1 0 0 0, f 28;
#X obj 248 305 s LS3;
#X obj 17 255 delay 7500;
#X msg 150 258 3000;
#X text 322 91 Vol. |Length|Pitch;
#X obj 276 91 t b b;
#X obj 276 68 delay 5000;
#X obj 7 172 delay 5000;
#X msg 140 175 6000;
#X msg 362 110 11000;
#X msg 411 109 63;
#X msg 189 174 59;
#X msg 199 257 61;
#X msg 100 101 0.2;
#X msg 101 175 0.2;
#X msg 323 110 0.15;
#X msg 188 100 60;
#X msg 111 258 0.15;
#X connect 0 0 21 0;
#X connect 0 0 2 0;
#X connect 0 0 24 0;
#X connect 0 0 22 0;
#X connect 0 0 19 0;
#X connect 0 0 16 0;
#X connect 0 0 1 0;
#X connect 0 0 25 0;
#X connect 0 0 11 0;
#X connect 0 0 20 0;
#X connect 0 0 14 0;
#X connect 0 0 15 0;
#X connect 0 0 10 0;
#X connect 1 0 4 0;
#X connect 2 0 1 2;
#X connect 5 0 7 0;
#X connect 8 0 9 0;
#X connect 10 0 8 0;
#X connect 11 0 8 2;
#X connect 13 0 1 0;
#X connect 13 1 23 0;
#X connect 13 1 17 0;
#X connect 13 1 18 0;
#X connect 14 0 13 0;
#X connect 15 0 5 0;
#X connect 16 0 5 2;
#X connect 17 0 1 2;
#X connect 18 0 1 3;
#X connect 19 0 5 3;
#X connect 20 0 8 3;
#X connect 21 0 1 1;
#X connect 22 0 5 1;
#X connect 23 0 1 1;
#X connect 24 0 1 3;
#X connect 25 0 8 1;
#X restore 214 554 pd p7;
#X obj 364 535 r p8, f 5;
#N canvas 910 395 450 300 p8 0;
#X obj 16 65 inlet;
#X obj 16 123 pack 1 0 0 0, f 28;
#X obj 16 146 s LS1;
#X text 92 82 Vol. |Length|Pitch;
#X text 14 8 4: Long sines(1) g# 35";
#X msg 132 101 29000;
#X msg 181 100 63;
#X msg 93 101 0.5;
#X connect 0 0 7 0;
#X connect 0 0 5 0;
#X connect 0 0 6 0;
#X connect 0 0 1 0;
#X connect 1 0 2 0;
#X connect 5 0 1 2;
#X connect 6 0 1 3;
#X connect 7 0 1 1;
#X restore 364 556 pd p8;
#X obj 67 601 r p9, f 5;
#N canvas 401 209 992 745 p9 0;
#X obj 79 101 pack 1 0 0 0, f 16;
#X obj 201 103 t b b;
#X msg 120 77 400;
#X obj 242 99 delay 10;
#X obj 28 7 inlet;
#X obj 80 123 s RS1;
#X obj 242 122 s S1, f 5;
#X text 120 58 Length|Rhythm|Pitch|Stop;
#X obj 80 194 pack 1 0 0 0, f 16;
#X obj 202 193 t b b;
#X obj 244 193 delay 10;
#X text 122 152 Length|Rhythm|Pitch|Stop;
#X obj 82 217 s RS2;
#X obj 244 216 s S2, f 5;
#X obj 82 286 pack 1 0 0 0, f 16;
#X obj 202 285 t b b;
#X obj 244 285 delay 10;
#X text 122 244 Length|Rhythm|Pitch|Stop;
#X obj 82 309 s RS3;
#X obj 244 308 s S3, f 5;
#X obj 76 383 pack 1 0 0 0, f 16;
#X obj 196 383 t b b;
#X msg 116 360 400;
#X obj 238 382 delay 10;
#X obj 78 477 pack 1 0 0 0, f 16;
#X obj 198 476 t b b;
#X obj 240 476 delay 10;
#X text 118 435 Length|Rhythm|Pitch|Stop;
#X obj 78 569 pack 1 0 0 0, f 16;
#X obj 198 568 t b b;
#X msg 118 546 400;
#X obj 240 568 delay 10;
#X text 118 527 Length|Rhythm|Pitch|Stop;
#X text 118 344 Length|Rhythm|Pitch|Stop;
#X obj 76 406 s RS4;
#X obj 238 405 s S4, f 5;
#X obj 78 500 s RS5;
#X obj 78 592 s RS6;
#X obj 240 591 s S6, f 5;
#X obj 240 499 s S5, f 5;
#X text 14 27 1: Random Sines(6) c \, c# \, d# +d \, e \, f 45";
#X obj 15 79 delay 2000;
#X msg 258 78 13000;
#X obj 20 164 delay 8000;
#X msg 260 171 36000;
#X obj 31 243 delay 15000;
#X msg 260 263 22500;
#X obj 30 341 delay 26000;
#X msg 254 361 19000;
#X obj 16 438 delay 38000;
#X msg 256 454 7500;
#X obj 26 531 delay 39500;
#X msg 256 546 6000;
#X obj 508 133 t b b;
#X obj 559 140 delay 10;
#X msg 427 110 400;
#X text 427 91 Length|Rhythm|Pitch|Stop;
#X obj 341 51 delay 43000;
#X obj 539 232 t b b;
#X obj 596 233 delay 10;
#X msg 462 205 400;
#X text 462 186 Length|Rhythm|Pitch|Stop;
#X msg 566 111 8000;
#X obj 354 176 delay 37500;
#X msg 601 206 3000;
#X obj 372 203 t b b;
#X obj 335 83 t b b;
#X obj 540 326 t b b;
#X obj 584 328 delay 10;
#X text 459 284 Length|Rhythm|Pitch|Stop;
#X msg 598 304 3000;
#X obj 365 300 t b b;
#X obj 345 261 delay 30000;
#X obj 541 419 t b b;
#X obj 590 427 delay 10;
#X msg 460 396 400;
#X text 460 377 Length|Rhythm|Pitch|Stop;
#X obj 366 393 t b b;
#X msg 599 397 26000;
#X obj 857 245 t b b;
#X obj 914 252 delay 10;
#X msg 776 222 400;
#X text 776 203 Length|Rhythm|Pitch|Stop;
#X obj 691 210 t b b;
#X obj 833 137 t b b;
#X obj 888 137 delay 10;
#X msg 759 113 400;
#X text 759 94 Length|Rhythm|Pitch|Stop;
#X obj 675 112 t b b;
#X obj 668 73 delay 23000;
#X msg 915 223 26000;
#X msg 898 114 4000;
#X obj 345 362 delay 23000;
#X obj 665 174 delay 5000;
#X msg 216 77 59;
#X msg 524 110 59;
#X msg 855 113 63;
#X msg 218 171 63;
#X msg 559 205 58;
#X msg 873 222 56;
#X msg 218 263 64;
#X msg 556 303 57;
#X msg 212 361 62;
#X msg 556 396 55;
#X msg 215 454 61;
#X msg 214 546 60;
#X msg 168 77 900;
#X msg 170 263 900;
#X msg 164 360 1100;
#X msg 166 454 750;
#X msg 166 546 700;
#X msg 475 110 2200;
#X msg 510 205 900;
#X msg 508 396 2000;
#X msg 807 113 900;
#X msg 824 222 900;
#X msg 122 171 600;
#X msg 118 454 200;
#X msg 122 263 240;
#X msg 170 171 3000;
#X msg 507 303 1700;
#X msg 459 303 300;
#X connect 0 0 5 0;
#X connect 1 0 3 0;
#X connect 1 1 42 0;
#X connect 2 0 0 1;
#X connect 3 0 6 0;
#X connect 4 0 2 0;
#X connect 4 0 106 0;
#X connect 4 0 94 0;
#X connect 4 0 116 0;
#X connect 4 0 119 0;
#X connect 4 0 97 0;
#X connect 4 0 22 0;
#X connect 4 0 108 0;
#X connect 4 0 102 0;
#X connect 4 0 117 0;
#X connect 4 0 109 0;
#X connect 4 0 30 0;
#X connect 4 0 110 0;
#X connect 4 0 105 0;
#X connect 4 0 41 0;
#X connect 4 0 43 0;
#X connect 4 0 45 0;
#X connect 4 0 47 0;
#X connect 4 0 49 0;
#X connect 4 0 51 0;
#X connect 4 0 118 0;
#X connect 4 0 107 0;
#X connect 4 0 100 0;
#X connect 4 0 104 0;
#X connect 8 0 12 0;
#X connect 9 0 10 0;
#X connect 9 1 44 0;
#X connect 10 0 13 0;
#X connect 14 0 18 0;
#X connect 15 0 16 0;
#X connect 15 1 46 0;
#X connect 16 0 19 0;
#X connect 20 0 34 0;
#X connect 21 0 23 0;
#X connect 21 1 48 0;
#X connect 22 0 20 1;
#X connect 23 0 35 0;
#X connect 24 0 36 0;
#X connect 25 0 26 0;
#X connect 25 1 50 0;
#X connect 26 0 39 0;
#X connect 28 0 37 0;
#X connect 29 0 31 0;
#X connect 29 1 52 0;
#X connect 30 0 28 1;
#X connect 31 0 38 0;
#X connect 41 0 0 0;
#X connect 41 0 57 0;
#X connect 41 0 1 0;
#X connect 42 0 3 1;
#X connect 43 0 8 0;
#X connect 43 0 63 0;
#X connect 43 0 9 0;
#X connect 44 0 10 1;
#X connect 45 0 14 0;
#X connect 45 0 72 0;
#X connect 45 0 15 0;
#X connect 46 0 16 1;
#X connect 47 0 20 0;
#X connect 47 0 21 0;
#X connect 47 0 92 0;
#X connect 48 0 23 1;
#X connect 49 0 24 0;
#X connect 49 0 25 0;
#X connect 50 0 26 1;
#X connect 51 0 28 0;
#X connect 51 0 29 0;
#X connect 52 0 31 1;
#X connect 53 0 54 0;
#X connect 53 1 62 0;
#X connect 54 0 6 0;
#X connect 55 0 0 1;
#X connect 57 0 0 0;
#X connect 57 0 53 0;
#X connect 57 0 66 0;
#X connect 57 0 89 0;
#X connect 58 0 59 0;
#X connect 58 1 64 0;
#X connect 59 0 13 0;
#X connect 60 0 8 1;
#X connect 62 0 54 1;
#X connect 63 0 58 0;
#X connect 63 0 8 0;
#X connect 63 0 65 0;
#X connect 63 0 93 0;
#X connect 64 0 59 1;
#X connect 65 0 8 0;
#X connect 65 1 60 0;
#X connect 65 1 112 0;
#X connect 65 1 98 0;
#X connect 66 0 0 0;
#X connect 66 1 55 0;
#X connect 66 1 111 0;
#X connect 66 1 95 0;
#X connect 67 0 68 0;
#X connect 67 1 70 0;
#X connect 68 0 19 0;
#X connect 70 0 68 1;
#X connect 71 0 14 0;
#X connect 71 1 121 0;
#X connect 71 1 120 0;
#X connect 71 1 101 0;
#X connect 72 0 67 0;
#X connect 72 0 71 0;
#X connect 73 0 74 0;
#X connect 73 1 78 0;
#X connect 74 0 35 0;
#X connect 75 0 20 1;
#X connect 77 0 20 0;
#X connect 77 1 75 0;
#X connect 77 1 113 0;
#X connect 77 1 103 0;
#X connect 78 0 74 1;
#X connect 79 0 80 0;
#X connect 79 1 90 0;
#X connect 80 0 13 0;
#X connect 81 0 8 1;
#X connect 83 0 8 0;
#X connect 83 1 81 0;
#X connect 83 1 115 0;
#X connect 83 1 99 0;
#X connect 84 0 85 0;
#X connect 84 1 91 0;
#X connect 85 0 6 0;
#X connect 86 0 0 1;
#X connect 88 0 0 0;
#X connect 88 1 86 0;
#X connect 88 1 114 0;
#X connect 88 1 96 0;
#X connect 89 0 84 0;
#X connect 89 0 88 0;
#X connect 90 0 80 1;
#X connect 91 0 85 1;
#X connect 92 0 73 0;
#X connect 92 0 77 0;
#X connect 93 0 79 0;
#X connect 93 0 83 0;
#X connect 94 0 0 3;
#X connect 96 0 0 3;
#X connect 97 0 8 3;
#X connect 98 0 8 3;
#X connect 99 0 8 3;
#X connect 100 0 14 3;
#X connect 101 0 14 3;
#X connect 102 0 20 3;
#X connect 103 0 20 3;
#X connect 104 0 24 3;
#X connect 105 0 28 3;
#X connect 106 0 0 2;
#X connect 107 0 14 2;
#X connect 108 0 20 2;
#X connect 109 0 24 2;
#X connect 110 0 28 2;
#X connect 111 0 0 2;
#X connect 112 0 8 2;
#X connect 113 0 20 2;
#X connect 114 0 0 2;
#X connect 115 0 8 2;
#X connect 116 0 8 1;
#X connect 117 0 24 1;
#X connect 118 0 14 1;
#X connect 119 0 8 2;
#X connect 120 0 14 2;
#X connect 121 0 14 1;
#X restore 67 622 pd p9;
#X obj 248 602 r p10, f 6;
#N canvas 625 175 606 711 p10 1;
#X obj 38 36 inlet;
#X obj 38 129 pack 1 0 0 0, f 28;
#X text 121 83 Vol. |Length|Pitch;
#X obj 262 149 s LS1;
#X obj 38 222 pack 1 0 0 0, f 28;
#X text 122 177 Vol. |Length|Pitch;
#X obj 259 242 s LS2;
#X text 16 -2 5: Long sines(2) g# +f# g#-c -f# c-c# +f#-e c#-e e-d# d#-c# e-c# -c# 72", f 42;
#X obj 40 315 pack 1 0 0 0, f 28;
#X text 124 270 Vol. |Length|Pitch;
#X obj 44 423 pack 1 0 0 0, f 28;
#X text 128 378 Vol. |Length|Pitch;
#X obj 47 514 pack 1 0 0 0, f 28;
#X text 131 469 Vol. |Length|Pitch;
#X obj 51 608 pack 1 0 0 0, f 28;
#X text 135 563 Vol. |Length|Pitch;
#X obj 26 101 delay 1500;
#X msg 161 102 86000;
#X obj 261 335 s LS3;
#X obj 265 443 s LS4;
#X obj 268 534 s LS5;
#X obj 272 628 s LS6;
#X obj 28 192 delay 12000;
#X msg 161 195 69500;
#X obj 30 285 delay 22000;
#X msg 163 288 79000;
#X obj 34 393 delay 25000;
#X msg 167 396 55000;
#X obj 37 484 delay 31000;
#X msg 170 487 35000;
#X obj 41 578 delay 37000;
#X msg 174 581 15500;
#X msg 210 101 56;
#X msg 210 194 60;
#X msg 212 287 61;
#X msg 216 395 63;
#X msg 219 486 64;
#X msg 223 580 66;
#X msg 122 102 0.3;
#X msg 124 288 0.3;
#X msg 126 397 0.1;
#X msg 131 487 0.2;
#X msg 122 195 0.15;
#X msg 135 581 0.25;
#X connect 0 0 38 0;
#X connect 0 0 17 0;
#X connect 0 0 32 0;
#X connect 0 0 42 0;
#X connect 0 0 33 0;
#X connect 0 0 23 0;
#X connect 0 0 39 0;
#X connect 0 0 25 0;
#X connect 0 0 34 0;
#X connect 0 0 40 0;
#X connect 0 0 27 0;
#X connect 0 0 35 0;
#X connect 0 0 41 0;
#X connect 0 0 29 0;
#X connect 0 0 36 0;
#X connect 0 0 43 0;
#X connect 0 0 31 0;
#X connect 0 0 37 0;
#X connect 0 0 16 0;
#X connect 0 0 22 0;
#X connect 0 0 24 0;
#X connect 0 0 26 0;
#X connect 0 0 28 0;
#X connect 0 0 30 0;
#X connect 1 0 3 0;
#X connect 4 0 6 0;
#X connect 8 0 18 0;
#X connect 10 0 19 0;
#X connect 12 0 20 0;
#X connect 14 0 21 0;
#X connect 16 0 1 0;
#X connect 17 0 1 2;
#X connect 22 0 4 0;
#X connect 23 0 4 2;
#X connect 24 0 8 0;
#X connect 25 0 8 2;
#X connect 26 0 10 0;
#X connect 27 0 10 2;
#X connect 28 0 12 0;
#X connect 29 0 12 2;
#X connect 30 0 14 0;
#X connect 31 0 14 2;
#X connect 32 0 1 3;
#X connect 33 0 4 3;
#X connect 34 0 8 3;
#X connect 35 0 10 3;
#X connect 36 0 12 3;
#X connect 37 0 14 3;
#X connect 38 0 1 1;
#X connect 39 0 8 1;
#X connect 40 0 10 1;
#X connect 41 0 12 1;
#X connect 42 0 4 1;
#X connect 43 0 14 1;
#X restore 248 623 pd p10;
#X obj 46 278 dac~, f 5;
#X obj 104 137 vu 15 200 empty empty -1 -8 0 12 #404040 #000000 1 0;
#N canvas 225 149 625 417 vu 1;
#X obj 59 129 env~ 1024;
#X obj 161 111 abs~;
#X obj 161 213 snapshot~;
#X obj 161 256 rmstodb;
#X obj 161 21 inlet~;
#X obj 161 288 - 100;
#X obj 59 287 - 100;
#X obj 59 361 outlet;
#X obj 161 361 outlet;
#X text 344 307 Check the help file of env~ and slop~ for more details., f 31;
#X obj 239 89 expr 1000 / $f1;
#X floatatom 239 117 5 0 0 0 - - - 0;
#X obj 161 146 slop~ 0 0 0 0 1e+09;
#X obj 239 18 inlet;
#X floatatom 239 57 5 0 0 0 - - - 0;
#X text 359 89 convert to hz;
#X text 282 118 hz;
#X text 284 57 peak decay time in ms;
#X obj 59 171 t f b;
#X text 345 132 The env~ object is dedicated to RMS analysis. Its output is in dB (0-100 range \, pd style) but needs to be converted to dBFS (and we do that by simply subtracting 100)., f 31;
#X text 345 225 The slop~ object is used here for peak detection. We need to convert the output to dB with rmstodb and also subtract by 100 to convert it to dBFS., f 31;
#X connect 0 0 18 0;
#X connect 1 0 12 0;
#X connect 2 0 3 0;
#X connect 3 0 5 0;
#X connect 4 0 0 0;
#X connect 4 0 1 0;
#X connect 5 0 8 0;
#X connect 6 0 7 0;
#X connect 10 0 11 0;
#X connect 11 0 12 3;
#X connect 12 0 2 0;
#X connect 13 0 14 0;
#X connect 14 0 10 0;
#X connect 18 0 6 0;
#X connect 18 1 2 0;
#X restore 47 136 pd vu;
#X obj 752 389 s~ RS;
#X obj 751 717 s~ LS;
#X obj 47 197 r~ RS;
#X obj 46 166 r~ LS;
#N canvas 658 414 537 333 keypress 0;
#X obj 57 35 inlet;
#X obj 63 237 outlet key;
#X obj 399 238 outlet s;
#X msg 59 126 0;
#X msg 93 126 1;
#X msg 128 126 2;
#X msg 163 126 3;
#X msg 197 126 4;
#X msg 232 126 5;
#X msg 301 126 7;
#X msg 336 126 8;
#X msg 371 126 9;
#X msg 267 126 6;
#X obj 59 104 sel 49 50 51 52 53 54 55 56 57 48 115, f 56;
#X connect 0 0 13 0;
#X connect 3 0 1 0;
#X connect 4 0 1 0;
#X connect 5 0 1 0;
#X connect 6 0 1 0;
#X connect 7 0 1 0;
#X connect 8 0 1 0;
#X connect 9 0 1 0;
#X connect 10 0 1 0;
#X connect 11 0 1 0;
#X connect 12 0 1 0;
#X connect 13 0 3 0;
#X connect 13 1 4 0;
#X connect 13 2 5 0;
#X connect 13 3 6 0;
#X connect 13 4 7 0;
#X connect 13 5 8 0;
#X connect 13 6 12 0;
#X connect 13 7 9 0;
#X connect 13 8 10 0;
#X connect 13 9 11 0;
#X connect 13 10 2 0;
#X restore 209 172 pd keypress;
#X f 12;
#N canvas 79 79 1201 658 pedal 1;
#X obj 59 129 f, f 5;
#X floatatom 59 154 5 0 0 0 - - - 0;
#X floatatom 181 205 5 0 0 0 - - - 0;
#X obj 111 129 + 1;
#X obj 59 101 bng 19 250 50 0 empty empty empty 0 -10 0 12 #fcfcfc #000000 #000000;
#X obj 59 206 sel 1;
#X msg 91 101 0;
#X obj 59 181 expr if($f1 ==1 \, 1 \, 0);
#X obj 59 76 t b b;
#X obj 120 259 s bang;
#X obj 59 54 r bang;
#X msg 434 263 49;
#X msg 469 263 50;
#X msg 505 263 51;
#X msg 540 263 52;
#X msg 577 263 53;
#X msg 612 263 54;
#X msg 647 263 55;
#X msg 682 263 56;
#X msg 718 263 57;
#X msg 753 263 48;
#X msg 399 263 115;
#X obj 398 131 f, f 5;
#X floatatom 399 156 5 0 0 0 - - - 0;
#X obj 450 131 + 1;
#X obj 61 259 s count;
#X obj 311 56 r count;
#X obj 398 75 t b b;
#X obj 369 56 bng 19 250 50 0 empty empty Start 0 -10 0 12 #fcfcfc #000000 #000000;
#X msg 431 107 0;
#X obj 399 236 sel 1 2 3 4 5 6 7 8 9 10 11, f 56;
#X obj 789 263 bng 19 250 50 0 empty empty empty 0 -10 0 12 #fcfcfc #000000 #000000;
#X obj 31 12 inlet midi;
#X obj 464 321 outlet pedal;
#X obj 399 321 outlet s;
#X obj 398 12 inlet start;
#X obj 299 321 outlet count;
#X obj 120 235 delay 1000;
#X obj 299 263 - 1;
#X text 46 353 This function makes sure only one button push is registered. 1 It sends only the first push to the counter with a delay of 1000ms. The extra pushes are stored in a number box. 2 It zeros out the number box with extra numbers, f 47;
#X text 400 348 This function records the midi button/pedal push and counts from 0 and up \, and sends the value of the corresponding keyboard key(1-0) to the outlet. The 's' is separated. The internal counter in this sub patch stars on 0 \, 1 being 's'. When sent out of the sub patch it subtracts 1 for it to correspond with the keyboard keys.;
#X connect 0 0 1 0;
#X connect 0 0 3 0;
#X connect 1 0 7 0;
#X connect 3 0 0 1;
#X connect 4 0 0 0;
#X connect 5 0 25 0;
#X connect 5 0 37 0;
#X connect 6 0 0 1;
#X connect 7 0 5 0;
#X connect 7 0 2 0;
#X connect 8 0 4 0;
#X connect 8 1 6 0;
#X connect 10 0 8 0;
#X connect 11 0 33 0;
#X connect 12 0 33 0;
#X connect 13 0 33 0;
#X connect 14 0 33 0;
#X connect 15 0 33 0;
#X connect 16 0 33 0;
#X connect 17 0 33 0;
#X connect 18 0 33 0;
#X connect 19 0 33 0;
#X connect 20 0 33 0;
#X connect 21 0 34 0;
#X connect 22 0 23 0;
#X connect 22 0 24 0;
#X connect 23 0 30 0;
#X connect 23 0 38 0;
#X connect 24 0 22 1;
#X connect 26 0 22 0;
#X connect 27 0 22 0;
#X connect 27 1 29 0;
#X connect 28 0 27 0;
#X connect 29 0 22 1;
#X connect 30 0 21 0;
#X connect 30 1 11 0;
#X connect 30 2 12 0;
#X connect 30 3 13 0;
#X connect 30 4 14 0;
#X connect 30 5 15 0;
#X connect 30 6 16 0;
#X connect 30 7 17 0;
#X connect 30 8 18 0;
#X connect 30 9 19 0;
#X connect 30 10 20 0;
#X connect 30 11 31 0;
#X connect 32 0 4 0;
#X connect 35 0 27 0;
#X connect 37 0 9 0;
#X connect 38 0 36 0;
#X restore 430 185 pd pedal;
#X obj 505 127 bng 50 250 50 0 empty empty empty 0 -10 0 12 #00ff04 #faff00 #000000;
#X floatatom 505 183 5 0 0 0 - - - 16;
#X text 213 151 <-Remove if midi control;
#X text 969 750 This part is not being used yet, f 26;
#X obj 422 124 ctlin 80;
#X text 338 102 Change number to fit MIDI controller, f 14;
#X connect 1 0 10 0;
#X connect 2 0 7 0;
#X connect 3 0 6 0;
#X connect 4 0 5 0;
#X connect 5 0 2 0;
#X connect 7 0 3 0;
#X connect 10 0 4 0;
#X connect 10 0 12 0;
#X connect 12 0 13 0;
#X connect 13 0 11 0;
#X connect 14 0 10 1;
#X connect 15 0 10 1;
#X connect 16 0 145 0;
#X connect 17 0 198 0;
#X connect 18 0 145 2;
#X connect 19 0 145 3;
#X connect 20 0 145 1;
#X connect 22 0 23 0;
#X connect 23 0 16 0;
#X connect 23 1 20 0;
#X connect 23 2 18 0;
#X connect 23 3 19 0;
#X connect 25 0 202 0;
#X connect 26 0 16 0;
#X connect 39 0 146 0;
#X connect 40 0 198 0;
#X connect 41 0 146 2;
#X connect 42 0 146 3;
#X connect 43 0 146 1;
#X connect 44 0 39 0;
#X connect 44 1 43 0;
#X connect 44 2 41 0;
#X connect 44 3 42 0;
#X connect 45 0 147 0;
#X connect 46 0 198 0;
#X connect 47 0 147 2;
#X connect 48 0 147 3;
#X connect 49 0 147 1;
#X connect 50 0 45 0;
#X connect 50 1 49 0;
#X connect 50 2 47 0;
#X connect 50 3 48 0;
#X connect 51 0 148 0;
#X connect 52 0 198 0;
#X connect 53 0 148 2;
#X connect 54 0 148 3;
#X connect 55 0 148 1;
#X connect 56 0 51 0;
#X connect 56 1 55 0;
#X connect 56 2 53 0;
#X connect 56 3 54 0;
#X connect 57 0 149 0;
#X connect 58 0 198 0;
#X connect 59 0 149 2;
#X connect 60 0 149 3;
#X connect 61 0 149 1;
#X connect 62 0 57 0;
#X connect 62 1 61 0;
#X connect 62 2 59 0;
#X connect 62 3 60 0;
#X connect 63 0 150 0;
#X connect 64 0 198 0;
#X connect 65 0 150 2;
#X connect 66 0 150 3;
#X connect 67 0 150 1;
#X connect 68 0 63 0;
#X connect 68 1 67 0;
#X connect 68 2 65 0;
#X connect 68 3 66 0;
#X connect 69 0 44 0;
#X connect 70 0 39 0;
#X connect 71 0 45 0;
#X connect 72 0 50 0;
#X connect 73 0 56 0;
#X connect 74 0 51 0;
#X connect 75 0 62 0;
#X connect 76 0 57 0;
#X connect 77 0 68 0;
#X connect 78 0 63 0;
#X connect 80 0 199 0;
#X connect 81 0 151 0;
#X connect 82 0 151 2;
#X connect 83 0 151 3;
#X connect 84 0 151 1;
#X connect 85 0 81 0;
#X connect 85 1 84 0;
#X connect 85 2 82 0;
#X connect 85 3 83 0;
#X connect 86 0 199 0;
#X connect 87 0 152 0;
#X connect 88 0 152 2;
#X connect 89 0 152 3;
#X connect 90 0 152 1;
#X connect 91 0 87 0;
#X connect 91 1 90 0;
#X connect 91 2 88 0;
#X connect 91 3 89 0;
#X connect 92 0 199 0;
#X connect 94 0 153 2;
#X connect 95 0 153 3;
#X connect 96 0 153 1;
#X connect 97 0 93 0;
#X connect 97 1 96 0;
#X connect 97 2 94 0;
#X connect 97 3 95 0;
#X connect 98 0 199 0;
#X connect 99 0 154 0;
#X connect 100 0 154 2;
#X connect 101 0 154 3;
#X connect 102 0 154 1;
#X connect 103 0 99 0;
#X connect 103 1 102 0;
#X connect 103 2 100 0;
#X connect 103 3 101 0;
#X connect 104 0 199 0;
#X connect 105 0 155 0;
#X connect 106 0 155 2;
#X connect 107 0 155 3;
#X connect 108 0 155 1;
#X connect 109 0 105 0;
#X connect 109 1 108 0;
#X connect 109 2 106 0;
#X connect 109 3 107 0;
#X connect 110 0 199 0;
#X connect 111 0 156 0;
#X connect 112 0 156 2;
#X connect 113 0 156 3;
#X connect 114 0 156 1;
#X connect 115 0 111 0;
#X connect 115 1 114 0;
#X connect 115 2 112 0;
#X connect 115 3 113 0;
#X connect 116 0 85 0;
#X connect 117 0 91 0;
#X connect 118 0 97 0;
#X connect 119 0 103 0;
#X connect 120 0 109 0;
#X connect 121 0 115 0;
#X connect 123 0 124 0;
#X connect 124 0 125 0;
#X connect 124 0 126 0;
#X connect 126 0 127 0;
#X connect 126 1 128 0;
#X connect 126 2 129 0;
#X connect 126 3 130 0;
#X connect 126 4 131 0;
#X connect 126 5 132 0;
#X connect 126 6 133 0;
#X connect 126 7 134 0;
#X connect 126 8 135 0;
#X connect 126 9 136 0;
#X connect 138 0 158 0;
#X connect 140 0 138 0;
#X connect 143 0 157 0;
#X connect 144 0 143 0;
#X connect 145 0 17 0;
#X connect 145 1 17 1;
#X connect 146 0 40 0;
#X connect 146 1 40 1;
#X connect 147 0 46 0;
#X connect 147 1 46 1;
#X connect 148 0 52 0;
#X connect 148 1 52 1;
#X connect 149 0 58 0;
#X connect 149 1 58 1;
#X connect 150 0 64 0;
#X connect 150 1 64 1;
#X connect 151 0 80 0;
#X connect 151 1 80 1;
#X connect 152 0 86 0;
#X connect 152 1 86 1;
#X connect 153 0 92 0;
#X connect 153 1 92 1;
#X connect 154 0 98 0;
#X connect 154 1 98 1;
#X connect 155 0 104 0;
#X connect 155 1 104 1;
#X connect 156 0 110 0;
#X connect 156 1 110 1;
#X connect 160 0 162 0;
#X connect 161 0 160 0;
#X connect 164 0 166 0;
#X connect 165 0 164 0;
#X connect 168 0 170 0;
#X connect 169 0 168 0;
#X connect 172 0 174 0;
#X connect 173 0 172 0;
#X connect 176 0 186 0;
#X connect 178 0 188 0;
#X connect 180 0 190 0;
#X connect 182 0 192 0;
#X connect 184 0 194 0;
#X connect 185 0 176 0;
#X connect 187 0 178 0;
#X connect 189 0 180 0;
#X connect 191 0 182 0;
#X connect 193 0 184 0;
#X connect 197 0 196 0;
#X connect 197 1 196 1;
#X connect 200 0 197 0;
#X connect 200 0 195 0;
#X connect 200 0 195 1;
#X connect 201 0 195 0;
#X connect 201 0 197 0;
#X connect 201 0 195 1;
#X connect 202 0 27 0;
#X connect 202 1 139 0;
#X connect 203 0 205 0;
#X connect 203 1 139 0;
#X connect 203 2 202 0;
#X connect 204 0 203 1;
#X connect 208 0 203 0;
